# xmcd CD database file
#
# Track frame offsets:
#	150
#	12139
#	24609
#	37195
#	48490
#	58612
#	69188
#	82389
#	93442
#	102140
#
# Disc length: 1509 seconds
#
# Revision: 1
# Processed by: cddbd v1.5.2PL0 Copyright (c) Steve Scherf et al.
# Submitted via: CDex 1.51
#
DISCID=7f05e30a
DTITLE=Tapes - Tapes
DYEAR=2006
DGENRE=Indie
TTITLE0=Dance alone
TTITLE1=Barcelona
TTITLE2=Highway
TTITLE3=Small room
TTITLE4=Eightythree
TTITLE5=Beach song
TTITLE6=Fade to black
TTITLE7=Brighter light
TTITLE8=In the garden
TTITLE9=Outside from the box
EXTD=YEAR: 2006
EXTT0=
EXTT1=
EXTT2=
EXTT3=
EXTT4=
EXTT5=
EXTT6=
EXTT7=
EXTT8=
EXTT9=
PLAYORDER=
